<svg xmlns="http://www.w3.org/2000/svg" height="40" viewBox="0 -960 960 960" width="40"><path d="M445.073-200.348h69.854v-40h51.74q14.979 0 24.953-9.905t9.974-24.743v-128.301q0-14.844-9.974-24.886t-24.993-10.042H428.26v-58.406h173.334v-69.615h-86.667v-40h-69.854v40h-51.74q-14.979 0-24.953 9.972-9.974 9.973-9.974 24.716v128.3q0 14.94 9.974 24.914 9.974 9.974 24.993 9.974H531.74v58.407H358.406v69.615h86.667v40ZM229.058-73.304q-30.994 0-53.374-22.38-22.38-22.38-22.38-53.374v-661.884q0-31.06 22.38-53.486 22.38-22.427 53.374-22.427H576.87L806.855-656.87v507.812q0 30.994-22.427 53.374-22.426 22.38-53.486 22.38H229.058Zm299.87-583.566v-154.072h-299.87v661.884h501.884V-656.87H528.928Zm-299.87-154.072v167.304-167.304 661.884-661.884Z"/></svg>